<svg xmlns="http://www.w3.org/2000/svg" xmlns:xlink="http://www.w3.org/1999/xlink" version="1.1" width="719px" height="668px" style="shape-rendering:geometricPrecision; text-rendering:geometricPrecision; image-rendering:optimizeQuality; fill-rule:evenodd; clip-rule:evenodd"><script xmlns=""/><script xmlns="">window._wordtune_extension_installed = true;</script>
<g><path style="opacity:0.685" fill="#050808" d="M 365.5,94.5 C 371.176,94.3339 376.843,94.5006 382.5,95C 389.5,98.6667 396.5,102.333 403.5,106C 422.681,120.425 441.681,135.091 460.5,150C 478.688,161.406 497.354,172.073 516.5,182C 528.991,193.084 536.825,206.918 540,223.5C 545.799,250.435 551.132,277.435 556,304.5C 557.906,312.47 560.573,320.137 564,327.5C 568.29,339.288 565.623,348.955 556,356.5C 552.462,363.581 550.295,371.081 549.5,379C 552.625,391.73 553.458,404.564 552,417.5C 543.098,429.694 533.432,430.361 523,419.5C 521.47,409.202 520.137,398.868 519,388.5C 518,386.833 517,385.167 516,383.5C 512.529,391.617 507.695,398.783 501.5,405C 497.096,406.777 493.596,409.61 491,413.5C 485.541,425.506 482.708,438.173 482.5,451.5C 483.686,467.636 485.853,483.636 489,499.5C 489.667,507.833 489.667,516.167 489,524.5C 485.444,537.371 476.944,543.537 463.5,543C 455.48,539.966 450.646,534.133 449,525.5C 450.953,504.283 451.786,483.116 451.5,462C 449.521,454.637 448.021,447.137 447,439.5C 446.147,437.065 445.147,434.731 444,432.5C 433.072,437.418 426.739,445.751 425,457.5C 424.667,463.833 424.333,470.167 424,476.5C 423.902,484.528 420.736,491.028 414.5,496C 406.621,498.982 399.787,497.482 394,491.5C 391.369,485.583 388.369,479.916 385,474.5C 383.883,472.876 382.383,471.876 380.5,471.5C 369.73,477.094 359.063,482.927 348.5,489C 333.825,495.54 322.325,492.04 314,478.5C 311.201,470.971 308.868,463.304 307,455.5C 294.856,455.181 285.689,449.848 279.5,439.5C 275.126,448.984 272.293,458.984 271,469.5C 270.086,483.201 269.086,496.868 268,510.5C 260.9,523.013 251.066,525.847 238.5,519C 234.913,515.995 232.746,512.162 232,507.5C 231.333,500.5 231.333,493.5 232,486.5C 237.46,462.734 239.126,438.734 237,414.5C 236.066,410.363 234.732,406.363 233,402.5C 229.364,400.266 225.531,398.432 221.5,397C 218.289,393.958 215.289,390.791 212.5,387.5C 208.441,394.745 206.441,402.578 206.5,411C 208.278,421.653 207.778,432.153 205,442.5C 194.985,453.06 184.985,453.06 175,442.5C 174.138,440.913 173.471,439.246 173,437.5C 172.797,433.579 172.297,429.745 171.5,426C 178.282,404.457 178.116,382.957 171,361.5C 167.979,355.459 164.979,349.459 162,343.5C 159.682,334.05 159.349,324.384 161,314.5C 165.691,302.108 170.691,289.774 176,277.5C 189.037,252.412 201.704,227.079 214,201.5C 218.659,196.501 221.993,190.834 224,184.5C 228.527,179.973 233.027,175.473 237.5,171C 268.135,151.008 299.469,132.008 331.5,114C 342.188,106.163 353.521,99.6626 365.5,94.5 Z"/></g>
<g><path style="opacity:1" fill="#a7b3d7" d="M 494.5,172.5 C 493.016,174.074 491.349,175.407 489.5,176.5C 480.069,171.355 470.736,166.021 461.5,160.5C 446.529,149.525 431.862,138.192 417.5,126.5C 406.204,116.846 393.87,108.679 380.5,102C 370.778,100.68 361.778,102.68 353.5,108C 338.084,117.26 323.084,127.093 308.5,137.5C 284.873,150.622 261.873,164.788 239.5,180C 236.059,182.768 233.393,186.101 231.5,190C 235.02,196.528 239.686,202.195 245.5,207C 275.099,233.463 307.432,255.963 342.5,274.5C 345.997,277.083 349.664,279.416 353.5,281.5C 353.918,282.222 354.584,282.722 355.5,283C 353.842,284.663 351.842,285.496 349.5,285.5C 314.388,267.773 281.722,246.273 251.5,221C 242.649,213.649 234.649,205.482 227.5,196.5C 219.693,209.117 212.693,222.117 206.5,235.5C 206.624,236.107 206.957,236.44 207.5,236.5C 207.34,238.153 206.674,239.486 205.5,240.5C 205.607,238.621 205.107,238.288 204,239.5C 198.859,250.586 193.526,261.586 188,272.5C 187.26,273.749 187.427,274.749 188.5,275.5C 188.34,277.153 187.674,278.486 186.5,279.5C 186.631,278.761 186.464,278.094 186,277.5C 185.209,278.745 184.709,280.078 184.5,281.5C 175.873,295.92 170.206,311.42 167.5,328C 167.901,333.314 169.067,338.481 171,343.5C 177.85,354.218 182.017,365.885 183.5,378.5C 181.483,379.529 179.483,380.529 177.5,381.5C 176.789,368.53 172.622,356.863 165,346.5C 161.724,333.794 161.724,321.128 165,308.5C 177.355,281.451 190.022,254.451 203,227.5C 208.114,219.607 212.447,211.274 216,202.5C 220.155,197.172 223.488,191.505 226,185.5C 235.493,175.681 245.993,167.181 257.5,160C 291.632,140.434 325.299,120.101 358.5,99C 367.415,96.1617 376.415,95.8284 385.5,98C 390.51,101.507 395.843,104.507 401.5,107C 420.319,121.909 439.319,136.575 458.5,151C 469.926,159.288 481.926,166.454 494.5,172.5 Z"/></g>
<g><path style="opacity:1" fill="#2c2d31" d="M 417.5,126.5 C 416.833,126.5 416.5,126.833 416.5,127.5C 406.501,118.69 395.501,111.19 383.5,105C 373.519,102.091 364.186,103.425 355.5,109C 339.805,118.844 324.139,128.678 308.5,138.5C 308.5,138.167 308.5,137.833 308.5,137.5C 323.084,127.093 338.084,117.26 353.5,108C 361.778,102.68 370.778,100.68 380.5,102C 393.87,108.679 406.204,116.846 417.5,126.5 Z"/></g>
<g><path style="opacity:1" fill="#fdfdfd" d="M 416.5,127.5 C 430.862,139.192 445.529,150.525 460.5,161.5C 476.159,171.123 492.159,180.29 508.5,189C 511.167,191 513.833,193 516.5,195C 514.167,197.333 511.833,199.667 509.5,202C 497.167,209.667 484.833,217.333 472.5,225C 453.355,234.404 434.688,244.57 416.5,255.5C 398.959,263.935 381.292,272.435 363.5,281C 361.5,281.667 359.5,281.667 357.5,281C 352.479,278.821 347.479,276.654 342.5,274.5C 308.313,254.891 276.313,232.057 246.5,206C 241.088,201.259 236.421,195.926 232.5,190C 234.795,186.703 237.462,183.703 240.5,181C 262.69,166.072 285.357,151.905 308.5,138.5C 324.139,128.678 339.805,118.844 355.5,109C 364.186,103.425 373.519,102.091 383.5,105C 395.501,111.19 406.501,118.69 416.5,127.5 Z"/></g>
<g><path style="opacity:1" fill="#141415" d="M 308.5,137.5 C 308.5,137.833 308.5,138.167 308.5,138.5C 285.357,151.905 262.69,166.072 240.5,181C 237.462,183.703 234.795,186.703 232.5,190C 236.421,195.926 241.088,201.259 246.5,206C 276.313,232.057 308.313,254.891 342.5,274.5C 307.432,255.963 275.099,233.463 245.5,207C 239.686,202.195 235.02,196.528 231.5,190C 233.393,186.101 236.059,182.768 239.5,180C 261.873,164.788 284.873,150.622 308.5,137.5 Z"/></g>
<g><path style="opacity:1" fill="#1f2022" d="M 254.5,194.5 C 256.025,197.037 257.692,199.537 259.5,202C 259.333,203.5 258.5,204.333 257,204.5C 247.181,199.662 244.848,192.329 250,182.5C 255.63,176.628 262.463,173.462 270.5,173C 271.731,174.183 271.731,175.349 270.5,176.5C 265.022,179.665 260.188,183.665 256,188.5C 254.872,190.345 254.372,192.345 254.5,194.5 Z"/></g>
<g><path style="opacity:1" fill="#a3aed2" d="M 254.5,194.5 C 254.642,197.617 255.976,200.117 258.5,202C 254.096,201.97 250.929,199.804 249,195.5C 247.925,191.142 248.592,187.142 251,183.5C 255.95,177.853 262.117,175.019 269.5,175C 264.372,178.297 259.706,182.13 255.5,186.5C 253.401,189.066 253.068,191.733 254.5,194.5 Z"/></g>
<g><path style="opacity:1" fill="#a1b5d2" d="M 478.5,210.5 C 477.022,210.762 475.689,210.429 474.5,209.5C 474.667,209.167 474.833,208.833 475,208.5C 479.9,206.531 484.733,204.365 489.5,202C 491.498,199.561 491.831,197.061 490.5,194.5C 488.979,190.885 486.313,188.385 482.5,187C 488.768,186.717 493.601,189.217 497,194.5C 498.202,198.793 497.035,202.293 493.5,205C 488.701,207.762 483.701,209.596 478.5,210.5 Z"/></g>
<g><path style="opacity:1" fill="#a0bad3" d="M 494.5,172.5 C 501.184,176.843 508.184,180.677 515.5,184C 520.116,188.275 524.283,192.775 528,197.5C 535.481,213.746 540.647,230.746 543.5,248.5C 542.883,248.389 542.383,248.056 542,247.5C 540.67,248.582 539.17,249.249 537.5,249.5C 536.072,243.318 534.405,237.318 532.5,231.5C 531.172,220.523 527.839,210.19 522.5,200.5C 515.591,207.292 507.924,213.126 499.5,218C 472.846,233.153 446.179,247.987 419.5,262.5C 404.077,269.711 388.743,277.211 373.5,285C 372.522,291.41 372.189,297.91 372.5,304.5C 372.187,308.042 372.521,311.375 373.5,314.5C 373.611,327.84 373.945,341.173 374.5,354.5C 373.835,352.631 373.169,350.631 372.5,348.5C 371.833,348.833 371.167,349.167 370.5,349.5C 369.506,354.456 369.173,359.456 369.5,364.5C 368.833,354.5 368.167,344.5 367.5,334.5C 367.538,319.816 367.038,305.149 366,290.5C 364.246,288.75 362.079,288.083 359.5,288.5C 359.311,297.352 358.645,306.019 357.5,314.5C 357.719,313.325 357.386,312.325 356.5,311.5C 355.14,312.18 353.807,312.847 352.5,313.5C 352.5,312.833 352.5,312.167 352.5,311.5C 353.154,303.837 353.321,296.17 353,288.5C 351.855,287.364 350.688,286.364 349.5,285.5C 351.842,285.496 353.842,284.663 355.5,283C 354.584,282.722 353.918,282.222 353.5,281.5C 358.223,282.993 362.89,282.827 367.5,281C 384.272,272.951 400.605,264.451 416.5,255.5C 448.845,239.827 480.179,222.327 510.5,203C 512.667,200.833 514.833,198.667 517,196.5C 517.711,194.633 517.211,193.133 515.5,192C 506.714,186.918 498.048,181.751 489.5,176.5C 491.349,175.407 493.016,174.074 494.5,172.5 Z"/></g>
<g><path style="opacity:1" fill="#fcfcfc" d="M 351.5,301.5 C 350.518,304.962 350.185,308.629 350.5,312.5C 348.704,341.648 348.37,370.648 349.5,399.5C 349.335,402.85 349.502,406.183 350,409.5C 351,410.833 352,410.833 353,409.5C 353.499,405.514 353.666,401.514 353.5,397.5C 354.268,396.737 354.768,395.737 355,394.5C 355.5,387.842 355.666,381.175 355.5,374.5C 356.356,359.843 357.023,345.176 357.5,330.5C 358.978,317.018 359.978,303.351 360.5,289.5C 361.833,289.5 363.167,289.5 364.5,289.5C 365.312,304.664 366.312,319.664 367.5,334.5C 367.177,375.012 367.843,415.346 369.5,455.5C 371.198,458.124 373.031,458.124 375,455.5C 375.499,450.845 375.666,446.179 375.5,441.5C 376.498,416.672 376.831,391.672 376.5,366.5C 376.827,356.985 376.494,347.652 375.5,338.5C 374.762,327.85 374.428,317.183 374.5,306.5C 374.813,302.958 374.479,299.625 373.5,296.5C 373.211,292.894 373.544,289.394 374.5,286C 389.876,278.647 404.876,270.814 419.5,262.5C 450.111,248.125 479.778,231.958 508.5,214C 513.286,210.882 517.786,207.382 522,203.5C 523.852,206.711 525.519,210.044 527,213.5C 528.546,219.711 530.38,225.711 532.5,231.5C 534.964,247.827 538.298,263.827 542.5,279.5C 542.232,281.099 542.566,282.432 543.5,283.5C 544.27,296.687 546.936,309.354 551.5,321.5C 552.5,324.833 553.5,328.167 554.5,331.5C 554.796,333.403 555.463,335.07 556.5,336.5C 556.662,338.527 556.495,340.527 556,342.5C 545.514,352.102 540.347,364.102 540.5,378.5C 540.771,383.036 541.438,387.369 542.5,391.5C 542.205,393.735 542.539,395.735 543.5,397.5C 543.666,402.844 543.499,408.177 543,413.5C 540.73,416.775 537.563,418.109 533.5,417.5C 531.452,410.588 530.119,403.588 529.5,396.5C 529.448,387.768 526.448,380.268 520.5,374C 517.833,373.333 515.167,373.333 512.5,374C 506.869,380.096 502.369,386.929 499,394.5C 496.592,396.956 493.759,398.789 490.5,400C 484.112,404.941 480.445,411.441 479.5,419.5C 477.517,422.799 476.517,426.466 476.5,430.5C 474.119,435.967 473.119,441.8 473.5,448C 473.978,465.388 476.145,482.555 480,499.5C 480.881,508.562 480.548,517.562 479,526.5C 475.462,533.858 469.962,536.025 462.5,533C 460.437,530.489 458.937,527.656 458,524.5C 458.809,510.862 459.642,497.196 460.5,483.5C 460.23,471.615 459.23,459.948 457.5,448.5C 457.678,444.878 457.011,441.544 455.5,438.5C 455.447,432.665 453.447,427.665 449.5,423.5C 447.368,421.883 445.035,421.383 442.5,422C 430.944,427.889 422.444,436.723 417,448.5C 416.505,450.473 416.338,452.473 416.5,454.5C 414.745,461.923 414.079,469.589 414.5,477.5C 414.064,483.422 411.064,486.922 405.5,488C 403.998,487.417 402.665,486.584 401.5,485.5C 398.611,477.772 394.278,470.939 388.5,465C 386.975,463.991 385.308,463.491 383.5,463.5C 379.444,462.147 375.444,462.647 371.5,465C 360.299,473.183 348.132,479.35 335,483.5C 326.761,481.928 321.761,476.928 320,468.5C 318.802,462.042 317.136,455.709 315,449.5C 313.681,447.513 311.848,446.346 309.5,446C 304.306,445.869 299.306,444.869 294.5,443C 290.592,438.515 286.926,433.848 283.5,429C 279.882,428.034 276.549,428.534 273.5,430.5C 269.19,436.117 266.857,442.45 266.5,449.5C 263.611,455.743 262.278,462.409 262.5,469.5C 261.527,471.948 261.194,474.615 261.5,477.5C 260.67,486.324 260.17,495.324 260,504.5C 256.604,513.377 250.937,515.377 243,510.5C 242.138,508.913 241.471,507.246 241,505.5C 240.501,499.843 240.334,494.176 240.5,488.5C 242.344,483.449 243.344,478.116 243.5,472.5C 244.801,468.057 245.468,463.391 245.5,458.5C 246.117,458.389 246.617,458.056 247,457.5C 247.827,444.993 247.66,432.66 246.5,420.5C 247.889,404.084 240.889,393.251 225.5,388C 223.205,384.703 220.538,381.703 217.5,379C 209.813,375.979 204.646,378.479 202,386.5C 201.023,388.74 200.523,391.073 200.5,393.5C 199.566,394.568 199.232,395.901 199.5,397.5C 198.732,398.263 198.232,399.263 198,400.5C 197.5,411.495 197.333,422.495 197.5,433.5C 194.431,442.184 189.431,443.517 182.5,437.5C 181.708,431.87 181.375,426.203 181.5,420.5C 183.175,417.493 183.841,414.16 183.5,410.5C 186.913,392.988 185.746,375.655 180,358.5C 176.965,352.147 173.965,345.814 171,339.5C 168.863,330.085 169.196,320.752 172,311.5C 176.644,301.746 180.81,291.746 184.5,281.5C 185.5,281.167 186.167,280.5 186.5,279.5C 187.674,278.486 188.34,277.153 188.5,275.5C 193.99,263.668 199.656,252.002 205.5,240.5C 206.674,239.486 207.34,238.153 207.5,236.5C 213.348,223.81 220.014,211.477 227.5,199.5C 263.655,235.835 304.655,265.335 350.5,288C 351.467,292.401 351.8,296.901 351.5,301.5 Z"/></g>
<g><path style="opacity:1" fill="#18191b" d="M 490.5,194.5 C 491.831,197.061 491.498,199.561 489.5,202C 484.733,204.365 479.9,206.531 475,208.5C 474.833,208.833 474.667,209.167 474.5,209.5C 475.689,210.429 477.022,210.762 478.5,210.5C 477.081,211.451 475.415,211.784 473.5,211.5C 473.343,210.127 473.51,208.793 474,207.5C 478.054,205.443 482.221,203.609 486.5,202C 489.397,200.285 490.731,197.785 490.5,194.5 Z"/></g>
<g><path style="opacity:1" fill="#171718" d="M 478.5,210.5 C 483.701,209.596 488.701,207.762 493.5,205C 497.035,202.293 498.202,198.793 497,194.5C 493.601,189.217 488.768,186.717 482.5,187C 486.313,188.385 488.979,190.885 490.5,194.5C 488.135,192.14 485.468,190.14 482.5,188.5C 481.614,187.675 481.281,186.675 481.5,185.5C 490.665,185.064 496.665,189.064 499.5,197.5C 497.591,204.568 492.924,208.734 485.5,210C 483.19,210.497 480.857,210.663 478.5,210.5 Z"/></g>
<g><path style="opacity:1" fill="#151616" d="M 416.5,127.5 C 416.5,126.833 416.833,126.5 417.5,126.5C 431.862,138.192 446.529,149.525 461.5,160.5C 470.736,166.021 480.069,171.355 489.5,176.5C 498.048,181.751 506.714,186.918 515.5,192C 517.211,193.133 517.711,194.633 517,196.5C 514.833,198.667 512.667,200.833 510.5,203C 480.179,222.327 448.845,239.827 416.5,255.5C 434.688,244.57 453.355,234.404 472.5,225C 484.833,217.333 497.167,209.667 509.5,202C 511.833,199.667 514.167,197.333 516.5,195C 513.833,193 511.167,191 508.5,189C 492.159,180.29 476.159,171.123 460.5,161.5C 445.529,150.525 430.862,139.192 416.5,127.5 Z"/></g>
<g><path style="opacity:1" fill="#171818" d="M 532.5,231.5 C 530.38,225.711 528.546,219.711 527,213.5C 525.519,210.044 523.852,206.711 522,203.5C 517.786,207.382 513.286,210.882 508.5,214C 479.778,231.958 450.111,248.125 419.5,262.5C 446.179,247.987 472.846,233.153 499.5,218C 507.924,213.126 515.591,207.292 522.5,200.5C 527.839,210.19 531.172,220.523 532.5,231.5 Z"/></g>
<g><path style="opacity:1" fill="#1e1f20" d="M 349.5,285.5 C 350.688,286.364 351.855,287.364 353,288.5C 353.321,296.17 353.154,303.837 352.5,311.5C 351.521,308.375 351.187,305.042 351.5,301.5C 351.8,296.901 351.467,292.401 350.5,288C 304.655,265.335 263.655,235.835 227.5,199.5C 220.014,211.477 213.348,223.81 207.5,236.5C 206.957,236.44 206.624,236.107 206.5,235.5C 212.693,222.117 219.693,209.117 227.5,196.5C 234.649,205.482 242.649,213.649 251.5,221C 281.722,246.273 314.388,267.773 349.5,285.5 Z"/></g>
<g><path style="opacity:1" fill="#171919" d="M 532.5,231.5 C 534.405,237.318 536.072,243.318 537.5,249.5C 539.681,259.406 541.348,269.406 542.5,279.5C 538.298,263.827 534.964,247.827 532.5,231.5 Z"/></g>
<g><path style="opacity:1" fill="#1c1c1e" d="M 205.5,240.5 C 199.656,252.002 193.99,263.668 188.5,275.5C 187.427,274.749 187.26,273.749 188,272.5C 193.526,261.586 198.859,250.586 204,239.5C 205.107,238.288 205.607,238.621 205.5,240.5 Z"/></g>
<g><path style="opacity:1" fill="#17191a" d="M 416.5,255.5 C 400.605,264.451 384.272,272.951 367.5,281C 362.89,282.827 358.223,282.993 353.5,281.5C 349.664,279.416 345.997,277.083 342.5,274.5C 347.479,276.654 352.479,278.821 357.5,281C 359.5,281.667 361.5,281.667 363.5,281C 381.292,272.435 398.959,263.935 416.5,255.5 Z"/></g>
<g><path style="opacity:1" fill="#141415" d="M 419.5,262.5 C 404.876,270.814 389.876,278.647 374.5,286C 373.544,289.394 373.211,292.894 373.5,296.5C 373.806,299.385 373.473,302.052 372.5,304.5C 372.189,297.91 372.522,291.41 373.5,285C 388.743,277.211 404.077,269.711 419.5,262.5 Z"/></g>
<g><path style="opacity:1" fill="#040404" d="M 186.5,279.5 C 186.167,280.5 185.5,281.167 184.5,281.5C 184.709,280.078 185.209,278.745 186,277.5C 186.464,278.094 186.631,278.761 186.5,279.5 Z"/></g>
<g><path style="opacity:1" fill="#91c5c8" d="M 543.5,248.5 C 547.204,267.423 550.537,286.423 553.5,305.5C 551.716,305.893 550.05,306.559 548.5,307.5C 546.607,299.449 544.94,291.449 543.5,283.5C 542.566,282.432 542.232,281.099 542.5,279.5C 541.348,269.406 539.681,259.406 537.5,249.5C 539.17,249.249 540.67,248.582 542,247.5C 542.383,248.056 542.883,248.389 543.5,248.5 Z"/></g>
<g><path style="opacity:1" fill="#090b0b" d="M 543.5,283.5 C 544.94,291.449 546.607,299.449 548.5,307.5C 549.81,312.076 550.81,316.743 551.5,321.5C 546.936,309.354 544.27,296.687 543.5,283.5 Z"/></g>
<g><path style="opacity:1" fill="#0e0f10" d="M 367.5,334.5 C 366.312,319.664 365.312,304.664 364.5,289.5C 363.167,289.5 361.833,289.5 360.5,289.5C 359.978,303.351 358.978,317.018 357.5,330.5C 357.5,325.167 357.5,319.833 357.5,314.5C 358.645,306.019 359.311,297.352 359.5,288.5C 362.079,288.083 364.246,288.75 366,290.5C 367.038,305.149 367.538,319.816 367.5,334.5 Z"/></g>
<g><path style="opacity:1" fill="#575f65" d="M 373.5,296.5 C 374.479,299.625 374.813,302.958 374.5,306.5C 373.527,308.948 373.194,311.615 373.5,314.5C 372.521,311.375 372.187,308.042 372.5,304.5C 373.473,302.052 373.806,299.385 373.5,296.5 Z"/></g>
<g><path style="opacity:1" fill="#171919" d="M 540.5,325.5 C 539.601,322.067 537.601,319.234 534.5,317C 533.365,316.251 532.365,316.417 531.5,317.5C 532.531,318.7 533.365,320.034 534,321.5C 534.814,326.02 534.647,330.354 533.5,334.5C 534.396,328.07 533.063,322.236 529.5,317C 536.598,314.915 540.264,317.748 540.5,325.5 Z"/></g>
<g><path style="opacity:1" fill="#84c6be" d="M 540.5,325.5 C 540.759,338.151 535.092,346.985 523.5,352C 522.056,352.781 520.723,352.614 519.5,351.5C 522.828,348.342 526.328,345.342 530,342.5C 531.845,340.133 533.011,337.467 533.5,334.5C 534.647,330.354 534.814,326.02 534,321.5C 533.365,320.034 532.531,318.7 531.5,317.5C 532.365,316.417 533.365,316.251 534.5,317C 537.601,319.234 539.601,322.067 540.5,325.5 Z"/></g>
<g><path style="opacity:1" fill="#6e7a83" d="M 351.5,301.5 C 351.187,305.042 351.521,308.375 352.5,311.5C 352.5,312.167 352.5,312.833 352.5,313.5C 352.817,317.702 352.483,321.702 351.5,325.5C 351.818,320.968 351.485,316.634 350.5,312.5C 350.185,308.629 350.518,304.962 351.5,301.5 Z"/></g>
<g><path style="opacity:1" fill="#99bfce" d="M 357.5,314.5 C 357.5,319.833 357.5,325.167 357.5,330.5C 355.736,344.963 354.736,359.63 354.5,374.5C 353.508,381.982 353.175,389.648 353.5,397.5C 352.835,399.698 352.168,402.031 351.5,404.5C 350.83,402.709 350.163,401.042 349.5,399.5C 349.501,374.813 350.168,350.146 351.5,325.5C 352.483,321.702 352.817,317.702 352.5,313.5C 353.807,312.847 355.14,312.18 356.5,311.5C 357.386,312.325 357.719,313.325 357.5,314.5 Z"/></g>
<g><path style="opacity:1" fill="#0e1312" d="M 551.5,321.5 C 553.785,324.335 555.118,327.668 555.5,331.5C 555.167,331.5 554.833,331.5 554.5,331.5C 553.5,328.167 552.5,324.833 551.5,321.5 Z"/></g>
<g><path style="opacity:1" fill="#85cec2" d="M 553.5,305.5 C 555.866,313.267 558.699,320.934 562,328.5C 563.456,334.097 563.789,339.763 563,345.5C 559.635,349.693 556.135,353.693 552.5,357.5C 552.565,357.062 552.399,356.728 552,356.5C 549.917,358.338 547.75,359.005 545.5,358.5C 548.355,352.81 552.188,347.81 557,343.5C 557.498,340.518 557.665,337.518 557.5,334.5C 557.573,332.973 556.906,331.973 555.5,331.5C 555.118,327.668 553.785,324.335 551.5,321.5C 550.81,316.743 549.81,312.076 548.5,307.5C 550.05,306.559 551.716,305.893 553.5,305.5 Z"/></g>
<g><path style="opacity:1" fill="#5c6463" d="M 554.5,331.5 C 554.833,331.5 555.167,331.5 555.5,331.5C 556.906,331.973 557.573,332.973 557.5,334.5C 556.662,334.842 556.328,335.508 556.5,336.5C 555.463,335.07 554.796,333.403 554.5,331.5 Z"/></g>
<g><path style="opacity:1" fill="#111314" d="M 374.5,306.5 C 374.428,317.183 374.762,327.85 375.5,338.5C 375.826,347.349 375.493,356.016 374.5,364.5C 374.5,361.167 374.5,357.833 374.5,354.5C 373.945,341.173 373.611,327.84 373.5,314.5C 373.194,311.615 373.527,308.948 374.5,306.5 Z"/></g>
<g><path style="opacity:1" fill="#1c1e1e" d="M 540.5,325.5 C 541.94,340.619 535.106,350.286 520,354.5C 517.812,353.941 517.146,352.607 518,350.5C 524.095,345.908 529.261,340.575 533.5,334.5C 533.011,337.467 531.845,340.133 530,342.5C 526.328,345.342 522.828,348.342 519.5,351.5C 520.723,352.614 522.056,352.781 523.5,352C 535.092,346.985 540.759,338.151 540.5,325.5 Z"/></g>
<g><path style="opacity:1" fill="#0f1112" d="M 357.5,330.5 C 357.023,345.176 356.356,359.843 355.5,374.5C 355.167,374.5 354.833,374.5 354.5,374.5C 354.736,359.63 355.736,344.963 357.5,330.5 Z"/></g>
<g><path style="opacity:1" fill="#95c8ce" d="M 374.5,354.5 C 374.5,357.833 374.5,361.167 374.5,364.5C 374.5,377.833 374.5,391.167 374.5,404.5C 373.417,404.539 372.417,404.873 371.5,405.5C 370.833,408.977 370.166,412.311 369.5,415.5C 369.5,398.5 369.5,381.5 369.5,364.5C 369.173,359.456 369.506,354.456 370.5,349.5C 371.167,349.167 371.833,348.833 372.5,348.5C 373.169,350.631 373.835,352.631 374.5,354.5 Z"/></g>
<g><path style="opacity:1" fill="#18191b" d="M 202.5,354.5 C 199.357,353.866 196.857,352.2 195,349.5C 191.67,342.215 188.337,334.882 185,327.5C 180.149,322.003 181.316,320.503 188.5,323C 193.506,329.18 197.34,336.013 200,343.5C 201.167,344.667 202.333,345.833 203.5,347C 219.721,355.557 234.555,366.057 248,378.5C 250.36,381.36 252.527,384.36 254.5,387.5C 252.45,388.663 250.45,388.496 248.5,387C 233.626,375.407 218.293,364.574 202.5,354.5 Z"/></g>
<g><path style="opacity:1" fill="#111313" d="M 350.5,312.5 C 351.485,316.634 351.818,320.968 351.5,325.5C 350.168,350.146 349.501,374.813 349.5,399.5C 348.37,370.648 348.704,341.648 350.5,312.5 Z"/></g>
<g><path style="opacity:1" fill="#0b0d0c" d="M 557.5,334.5 C 557.665,337.518 557.498,340.518 557,343.5C 552.188,347.81 548.355,352.81 545.5,358.5C 541.781,369.251 540.781,380.251 542.5,391.5C 541.438,387.369 540.771,383.036 540.5,378.5C 540.347,364.102 545.514,352.102 556,342.5C 556.495,340.527 556.662,338.527 556.5,336.5C 556.328,335.508 556.662,334.842 557.5,334.5 Z"/></g>
<g><path style="opacity:1" fill="#79ceb8" d="M 552.5,357.5 C 550.144,364.462 548.478,371.629 547.5,379C 548.455,385.186 549.455,391.353 550.5,397.5C 547.504,398.474 545.837,400.474 545.5,403.5C 544.833,401.5 544.167,399.5 543.5,397.5C 542.539,395.735 542.205,393.735 542.5,391.5C 540.781,380.251 541.781,369.251 545.5,358.5C 547.75,359.005 549.917,358.338 552,356.5C 552.399,356.728 552.565,357.062 552.5,357.5 Z"/></g>
<g><path style="opacity:1" fill="#161918" d="M 434.5,412.5 C 435.429,411.685 436.429,410.852 437.5,410C 448.213,405.871 458.88,401.538 469.5,397C 473.474,393.033 476.641,388.533 479,383.5C 482.694,379.806 486.36,376.14 490,372.5C 490.591,371.517 490.257,370.85 489,370.5C 484.808,372.028 481.142,374.362 478,377.5C 474.5,382.5 471,387.5 467.5,392.5C 461.691,395.408 455.691,397.741 449.5,399.5C 454.483,396.546 459.816,394.046 465.5,392C 469.743,386.846 473.743,381.512 477.5,376C 480.664,372.667 484.498,370.501 489,369.5C 492.493,369.631 493.16,370.964 491,373.5C 487.36,377.14 483.694,380.806 480,384.5C 477.641,389.533 474.474,394.033 470.5,398C 458.664,403.332 446.664,408.165 434.5,412.5 Z"/></g>
<g><path style="opacity:1" fill="#7ec6b9" d="M 434.5,412.5 C 421.399,418.575 408.732,425.575 396.5,433.5C 395.289,432.726 395.289,431.893 396.5,431C 412.676,417.915 430.342,407.415 449.5,399.5C 455.691,397.741 461.691,395.408 467.5,392.5C 471,387.5 474.5,382.5 478,377.5C 481.142,374.362 484.808,372.028 489,370.5C 490.257,370.85 490.591,371.517 490,372.5C 486.36,376.14 482.694,379.806 479,383.5C 476.641,388.533 473.474,393.033 469.5,397C 458.88,401.538 448.213,405.871 437.5,410C 436.429,410.852 435.429,411.685 434.5,412.5 Z"/></g>
<g><path style="opacity:1" fill="#111212" d="M 184.5,281.5 C 180.81,291.746 176.644,301.746 172,311.5C 169.196,320.752 168.863,330.085 171,339.5C 173.965,345.814 176.965,352.147 180,358.5C 185.746,375.655 186.913,392.988 183.5,410.5C 184.724,399.807 184.724,389.14 183.5,378.5C 182.017,365.885 177.85,354.218 171,343.5C 169.067,338.481 167.901,333.314 167.5,328C 170.206,311.42 175.873,295.92 184.5,281.5 Z"/></g>
<g><path style="opacity:1" fill="#101312" d="M 529.5,396.5 C 529.802,399.059 529.468,401.393 528.5,403.5C 528.5,401.167 528.5,398.833 528.5,396.5C 528.287,388.122 525.287,380.956 519.5,375C 515.048,374.14 511.548,375.64 509,379.5C 506,384.833 503,390.167 500,395.5C 494.635,399.019 489.635,403.019 485,407.5C 483.241,411.644 481.408,415.644 479.5,419.5C 480.445,411.441 484.112,404.941 490.5,400C 493.759,398.789 496.592,396.956 499,394.5C 502.369,386.929 506.869,380.096 512.5,374C 515.167,373.333 517.833,373.333 520.5,374C 526.448,380.268 529.448,387.768 529.5,396.5 Z"/></g>
<g><path style="opacity:1" fill="#9fb6d0" d="M 202.5,354.5 C 195.239,348.999 190.739,341.666 189,332.5C 187.669,329.166 185.835,326.166 183.5,323.5C 184.79,322.592 186.123,322.759 187.5,324C 192.488,330.137 196.321,336.971 199,344.5C 200.167,345.667 201.333,346.833 202.5,348C 221.27,357.428 237.77,369.928 252,385.5C 252.667,386.167 252.667,386.833 252,387.5C 241.1,378.967 229.933,370.8 218.5,363C 213.271,359.887 207.938,357.053 202.5,354.5 Z"/></g>
<g><path style="opacity:1" fill="#585959" d="M 354.5,374.5 C 354.833,374.5 355.167,374.5 355.5,374.5C 355.666,381.175 355.5,387.842 355,394.5C 354.768,395.737 354.268,396.737 353.5,397.5C 353.175,389.648 353.508,381.982 354.5,374.5 Z"/></g>
<g><path style="opacity:1" fill="#9dbed1" d="M 246.5,420.5 C 246.826,428.684 246.492,436.684 245.5,444.5C 245.666,437.159 245.5,429.826 245,422.5C 243.385,423.386 241.885,424.386 240.5,425.5C 240.243,417.138 238.41,409.138 235,401.5C 231.195,398.681 227.029,396.514 222.5,395C 218.956,391.625 215.623,388.125 212.5,384.5C 211.522,384.977 210.689,385.643 210,386.5C 206.344,394.232 204.51,402.399 204.5,411C 206.307,421.324 205.807,431.491 203,441.5C 194.312,450.728 185.645,450.728 177,441.5C 174.795,436.068 173.962,430.402 174.5,424.5C 176.517,423.471 178.517,422.471 180.5,421.5C 180.334,425.846 180.501,430.179 181,434.5C 181.232,435.737 181.732,436.737 182.5,437.5C 183.512,440.853 185.846,442.52 189.5,442.5C 193.151,442.257 195.984,440.59 198,437.5C 199.377,430.924 199.877,424.257 199.5,417.5C 199.5,410.833 199.5,404.167 199.5,397.5C 199.232,395.901 199.566,394.568 200.5,393.5C 202.012,388.814 204.345,384.481 207.5,380.5C 210.335,378.037 213.335,377.87 216.5,380C 220.433,386.599 226.099,390.933 233.5,393C 238.95,396.794 242.45,401.961 244,408.5C 244.705,412.665 245.539,416.665 246.5,420.5 Z"/></g>
<g><path style="opacity:1" fill="#5d7273" d="M 375.5,338.5 C 376.494,347.652 376.827,356.985 376.5,366.5C 375.833,382.5 375.167,398.5 374.5,414.5C 374.5,411.167 374.5,407.833 374.5,404.5C 374.5,391.167 374.5,377.833 374.5,364.5C 375.493,356.016 375.826,347.349 375.5,338.5 Z"/></g>
<g><path style="opacity:1" fill="#131414" d="M 246.5,420.5 C 245.539,416.665 244.705,412.665 244,408.5C 242.45,401.961 238.95,396.794 233.5,393C 226.099,390.933 220.433,386.599 216.5,380C 213.335,377.87 210.335,378.037 207.5,380.5C 204.345,384.481 202.012,388.814 200.5,393.5C 200.523,391.073 201.023,388.74 202,386.5C 204.646,378.479 209.813,375.979 217.5,379C 220.538,381.703 223.205,384.703 225.5,388C 240.889,393.251 247.889,404.084 246.5,420.5 Z"/></g>
<g><path style="opacity:1" fill="#7bd1bb" d="M 528.5,396.5 C 527.883,396.389 527.383,396.056 527,395.5C 525.67,396.582 524.17,397.249 522.5,397.5C 522.534,391.162 520.7,385.495 517,380.5C 512.613,385.583 508.947,391.249 506,397.5C 502.642,401.759 498.475,404.926 493.5,407C 491.641,408.558 490.141,410.391 489,412.5C 485.158,420.518 482.658,428.851 481.5,437.5C 480.279,436.535 478.946,436.702 477.5,438C 476.891,439.948 476.224,441.782 475.5,443.5C 475.927,439.176 476.261,434.842 476.5,430.5C 478.074,427.093 479.074,423.427 479.5,419.5C 481.408,415.644 483.241,411.644 485,407.5C 489.635,403.019 494.635,399.019 500,395.5C 503,390.167 506,384.833 509,379.5C 511.548,375.64 515.048,374.14 519.5,375C 525.287,380.956 528.287,388.122 528.5,396.5 Z"/></g>
<g><path style="opacity:1" fill="#a1bcd5" d="M 183.5,378.5 C 184.724,389.14 184.724,399.807 183.5,410.5C 182.419,413.627 181.753,416.96 181.5,420.5C 180.833,420.5 180.5,420.833 180.5,421.5C 178.517,422.471 176.517,423.471 174.5,424.5C 175.449,417.474 176.615,410.474 178,403.5C 178.796,396.087 178.63,388.754 177.5,381.5C 179.483,380.529 181.483,379.529 183.5,378.5 Z"/></g>
<g><path style="opacity:1" fill="#4b4b4b" d="M 367.5,334.5 C 368.167,344.5 368.833,354.5 369.5,364.5C 369.5,381.5 369.5,398.5 369.5,415.5C 369.5,423.833 369.5,432.167 369.5,440.5C 369.5,445.5 369.5,450.5 369.5,455.5C 367.843,415.346 367.177,375.012 367.5,334.5 Z"/></g>
<g><path style="opacity:1" fill="#3a3f3d" d="M 529.5,396.5 C 530.119,403.588 531.452,410.588 533.5,417.5C 532.542,417.047 531.708,416.381 531,415.5C 529.717,411.586 528.884,407.586 528.5,403.5C 529.468,401.393 529.802,399.059 529.5,396.5 Z"/></g>
<g><path style="opacity:1" fill="#73d7b7" d="M 528.5,396.5 C 528.5,398.833 528.5,401.167 528.5,403.5C 528.884,407.586 529.717,411.586 531,415.5C 531.708,416.381 532.542,417.047 533.5,417.5C 536.17,419.929 539.003,419.929 542,417.5C 544.944,413.322 546.11,408.655 545.5,403.5C 545.837,400.474 547.504,398.474 550.5,397.5C 551.896,403.874 551.729,410.207 550,416.5C 542.474,427.54 534.141,428.207 525,418.5C 523.64,411.565 522.806,404.565 522.5,397.5C 524.17,397.249 525.67,396.582 527,395.5C 527.383,396.056 527.883,396.389 528.5,396.5 Z"/></g>
<g><path style="opacity:1" fill="#252b2b" d="M 353.5,397.5 C 353.666,401.514 353.499,405.514 353,409.5C 352,410.833 351,410.833 350,409.5C 349.502,406.183 349.335,402.85 349.5,399.5C 350.163,401.042 350.83,402.709 351.5,404.5C 352.168,402.031 352.835,399.698 353.5,397.5 Z"/></g>
<g><path style="opacity:1" fill="#464b4f" d="M 199.5,397.5 C 199.5,404.167 199.5,410.833 199.5,417.5C 198.833,422.833 198.167,428.167 197.5,433.5C 197.333,422.495 197.5,411.495 198,400.5C 198.232,399.263 198.732,398.263 199.5,397.5 Z"/></g>
<g><path style="opacity:1" fill="#070808" d="M 183.5,410.5 C 183.841,414.16 183.175,417.493 181.5,420.5C 181.753,416.96 182.419,413.627 183.5,410.5 Z"/></g>
<g><path style="opacity:1" fill="#060708" d="M 199.5,417.5 C 199.877,424.257 199.377,430.924 198,437.5C 195.984,440.59 193.151,442.257 189.5,442.5C 185.846,442.52 183.512,440.853 182.5,437.5C 189.431,443.517 194.431,442.184 197.5,433.5C 198.167,428.167 198.833,422.833 199.5,417.5 Z"/></g>
<g><path style="opacity:1" fill="#242a28" d="M 543.5,397.5 C 544.167,399.5 544.833,401.5 545.5,403.5C 546.11,408.655 544.944,413.322 542,417.5C 539.003,419.929 536.17,419.929 533.5,417.5C 537.563,418.109 540.73,416.775 543,413.5C 543.499,408.177 543.666,402.844 543.5,397.5 Z"/></g>
<g><path style="opacity:1" fill="#040404" d="M 181.5,420.5 C 181.375,426.203 181.708,431.87 182.5,437.5C 181.732,436.737 181.232,435.737 181,434.5C 180.501,430.179 180.334,425.846 180.5,421.5C 180.5,420.833 180.833,420.5 181.5,420.5 Z"/></g>
<g><path style="opacity:1" fill="#282c2b" d="M 376.5,366.5 C 376.831,391.672 376.498,416.672 375.5,441.5C 375.802,438.941 375.468,436.607 374.5,434.5C 374.5,427.833 374.5,421.167 374.5,414.5C 375.167,398.5 375.833,382.5 376.5,366.5 Z"/></g>
<g><path style="opacity:1" fill="#1e2322" d="M 449.5,399.5 C 430.342,407.415 412.676,417.915 396.5,431C 395.289,431.893 395.289,432.726 396.5,433.5C 408.732,425.575 421.399,418.575 434.5,412.5C 421.178,420.586 407.678,428.586 394,436.5C 393.308,435.975 392.808,435.308 392.5,434.5C 396.298,429.87 400.632,425.703 405.5,422C 418.918,412.124 433.585,404.624 449.5,399.5 Z"/></g>
<g><path style="opacity:1" fill="#0e1110" d="M 479.5,419.5 C 479.074,423.427 478.074,427.093 476.5,430.5C 476.517,426.466 477.517,422.799 479.5,419.5 Z"/></g>
<g><path style="opacity:1" fill="#75cfb5" d="M 455.5,438.5 C 455.549,442.078 456.215,445.411 457.5,448.5C 457.5,451.167 457.5,453.833 457.5,456.5C 455.708,456.366 454.042,456.699 452.5,457.5C 450.922,451.38 449.755,445.046 449,438.5C 448.237,435.05 446.737,432.05 444.5,429.5C 432.662,434.832 425.495,443.832 423,456.5C 422.667,463.833 422.333,471.167 422,478.5C 421.119,484.764 418.285,489.931 413.5,494C 408.348,496.122 403.348,495.789 398.5,493C 394.162,486.818 390.495,480.318 387.5,473.5C 388.78,472.069 390.447,471.402 392.5,471.5C 395.504,475.299 397.67,479.632 399,484.5C 405.275,491.646 410.608,490.98 415,482.5C 415.494,480.866 415.66,479.199 415.5,477.5C 416.492,470.018 416.825,462.352 416.5,454.5C 420.477,440.999 428.81,430.833 441.5,424C 443.5,423.333 445.5,423.333 447.5,424C 451.772,428.016 454.439,432.849 455.5,438.5 Z"/></g>
<g><path style="opacity:1" fill="#7fc3b9" d="M 374.5,404.5 C 374.5,407.833 374.5,411.167 374.5,414.5C 374.5,421.167 374.5,427.833 374.5,434.5C 374.666,441.175 374.5,447.842 374,454.5C 372.989,455.337 371.822,455.67 370.5,455.5C 370.821,450.305 370.487,445.305 369.5,440.5C 369.5,432.167 369.5,423.833 369.5,415.5C 370.166,412.311 370.833,408.977 371.5,405.5C 372.417,404.873 373.417,404.539 374.5,404.5 Z"/></g>
<g><path style="opacity:1" fill="#202424" d="M 289.5,409.5 C 292.691,410.092 295.691,411.259 298.5,413C 311.833,425 325.167,437 338.5,449C 339.833,449.667 341.167,450.333 342.5,451C 347.5,451.333 352.5,451.667 357.5,452C 358.517,453.049 358.684,454.216 358,455.5C 349.096,461.047 340.596,460.547 332.5,454C 318.333,440.5 304.167,427 290,413.5C 289.51,412.207 289.343,410.873 289.5,409.5 Z"/></g>
<g><path style="opacity:1" fill="#8abfc1" d="M 319.5,434.5 C 318.29,434.932 317.29,435.599 316.5,436.5C 307.978,428.144 299.312,419.977 290.5,412C 291.5,411.333 292.5,411.333 293.5,412C 303.172,418.336 311.839,425.836 319.5,434.5 Z"/></g>
<g><path style="opacity:1" fill="#88c4c0" d="M 325.5,482.5 C 323.81,482.856 322.81,483.856 322.5,485.5C 319.111,483.275 316.611,480.275 315,476.5C 312.816,469.202 310.816,461.869 309,454.5C 302.319,453.197 295.819,451.03 289.5,448C 285.325,444.472 281.992,440.305 279.5,435.5C 277.204,438.53 275.371,441.863 274,445.5C 269.902,459.89 267.735,474.556 267.5,489.5C 265.83,489.751 264.33,490.418 263,491.5C 262.819,494.695 262.319,497.695 261.5,500.5C 261.5,492.833 261.5,485.167 261.5,477.5C 261.194,474.615 261.527,471.948 262.5,469.5C 264.252,463.003 265.586,456.336 266.5,449.5C 268.023,443.109 270.69,437.109 274.5,431.5C 276.93,429.429 279.597,429.096 282.5,430.5C 285.977,435.145 289.644,439.645 293.5,444C 299.337,445.974 305.337,447.307 311.5,448C 312.333,448.833 313.167,449.667 314,450.5C 316.335,458.845 318.668,467.178 321,475.5C 322.723,477.717 324.223,480.05 325.5,482.5 Z"/></g>
<g><path style="opacity:1" fill="#151817" d="M 455.5,438.5 C 454.439,432.849 451.772,428.016 447.5,424C 445.5,423.333 443.5,423.333 441.5,424C 428.81,430.833 420.477,440.999 416.5,454.5C 416.338,452.473 416.505,450.473 417,448.5C 422.444,436.723 430.944,427.889 442.5,422C 445.035,421.383 447.368,421.883 449.5,423.5C 453.447,427.665 455.447,432.665 455.5,438.5 Z"/></g>
<g><path style="opacity:1" fill="#060707" d="M 455.5,438.5 C 457.011,441.544 457.678,444.878 457.5,448.5C 456.215,445.411 455.549,442.078 455.5,438.5 Z"/></g>
<g><path style="opacity:1" fill="#414141" d="M 246.5,420.5 C 247.66,432.66 247.827,444.993 247,457.5C 246.617,458.056 246.117,458.389 245.5,458.5C 245.5,453.833 245.5,449.167 245.5,444.5C 246.492,436.684 246.826,428.684 246.5,420.5 Z"/></g>
<g><path style="opacity:1" fill="#82c6bc" d="M 319.5,434.5 C 326.335,440.499 333.335,446.332 340.5,452C 345.864,452.171 351.198,452.671 356.5,453.5C 351.85,457.211 346.517,458.378 340.5,457C 331.132,451.801 323.132,444.967 316.5,436.5C 317.29,435.599 318.29,434.932 319.5,434.5 Z"/></g>
<g><path style="opacity:1" fill="#151817" d="M 374.5,434.5 C 375.468,436.607 375.802,438.941 375.5,441.5C 375.666,446.179 375.499,450.845 375,455.5C 373.031,458.124 371.198,458.124 369.5,455.5C 369.5,450.5 369.5,445.5 369.5,440.5C 370.487,445.305 370.821,450.305 370.5,455.5C 371.822,455.67 372.989,455.337 374,454.5C 374.5,447.842 374.666,441.175 374.5,434.5 Z"/></g>
<g><path style="opacity:1" fill="#8bbec1" d="M 245.5,444.5 C 245.5,449.167 245.5,453.833 245.5,458.5C 245.468,463.391 244.801,468.057 243.5,472.5C 242.626,475.535 241.626,478.535 240.5,481.5C 240.649,480.448 240.483,479.448 240,478.5C 238.67,479.582 237.17,480.249 235.5,480.5C 238.822,462.326 240.489,443.993 240.5,425.5C 241.885,424.386 243.385,423.386 245,422.5C 245.5,429.826 245.666,437.159 245.5,444.5 Z"/></g>
<g><path style="opacity:1" fill="#1c1e1e" d="M 266.5,449.5 C 265.586,456.336 264.252,463.003 262.5,469.5C 262.278,462.409 263.611,455.743 266.5,449.5 Z"/></g>
<g><path style="opacity:1" fill="#67ceaa" d="M 481.5,437.5 C 481.027,454.268 482.027,470.935 484.5,487.5C 482.091,486.202 480.425,486.869 479.5,489.5C 476.408,474.464 475.074,459.131 475.5,443.5C 476.224,441.782 476.891,439.948 477.5,438C 478.946,436.702 480.279,436.535 481.5,437.5 Z"/></g>
<g><path style="opacity:1" fill="#76c7b2" d="M 383.5,463.5 C 386.688,465.932 389.688,468.599 392.5,471.5C 390.447,471.402 388.78,472.069 387.5,473.5C 385.132,470.647 382.132,469.481 378.5,470C 369.507,474.495 360.84,479.495 352.5,485C 345.554,488.571 338.22,490.238 330.5,490C 327.316,489.246 324.649,487.746 322.5,485.5C 322.81,483.856 323.81,482.856 325.5,482.5C 327.255,483.072 328.922,483.906 330.5,485C 332.833,485.667 335.167,485.667 337.5,485C 343.766,482.865 349.766,480.199 355.5,477C 362.504,472.163 369.837,467.829 377.5,464C 379.473,463.505 381.473,463.338 383.5,463.5 Z"/></g>
<g><path style="opacity:1" fill="#1b1e1d" d="M 383.5,463.5 C 385.308,463.491 386.975,463.991 388.5,465C 394.278,470.939 398.611,477.772 401.5,485.5C 402.665,486.584 403.998,487.417 405.5,488C 411.064,486.922 414.064,483.422 414.5,477.5C 414.833,477.5 415.167,477.5 415.5,477.5C 415.66,479.199 415.494,480.866 415,482.5C 410.608,490.98 405.275,491.646 399,484.5C 397.67,479.632 395.504,475.299 392.5,471.5C 389.688,468.599 386.688,465.932 383.5,463.5 Z"/></g>
<g><path style="opacity:1" fill="#636363" d="M 416.5,454.5 C 416.825,462.352 416.492,470.018 415.5,477.5C 415.167,477.5 414.833,477.5 414.5,477.5C 414.079,469.589 414.745,461.923 416.5,454.5 Z"/></g>
<g><path style="opacity:1" fill="#1f2523" d="M 383.5,463.5 C 381.473,463.338 379.473,463.505 377.5,464C 369.837,467.829 362.504,472.163 355.5,477C 349.766,480.199 343.766,482.865 337.5,485C 335.167,485.667 332.833,485.667 330.5,485C 328.922,483.906 327.255,483.072 325.5,482.5C 324.223,480.05 322.723,477.717 321,475.5C 318.668,467.178 316.335,458.845 314,450.5C 313.167,449.667 312.333,448.833 311.5,448C 305.337,447.307 299.337,445.974 293.5,444C 289.644,439.645 285.977,435.145 282.5,430.5C 279.597,429.096 276.93,429.429 274.5,431.5C 270.69,437.109 268.023,443.109 266.5,449.5C 266.857,442.45 269.19,436.117 273.5,430.5C 276.549,428.534 279.882,428.034 283.5,429C 286.926,433.848 290.592,438.515 294.5,443C 299.306,444.869 304.306,445.869 309.5,446C 311.848,446.346 313.681,447.513 315,449.5C 317.136,455.709 318.802,462.042 320,468.5C 321.761,476.928 326.761,481.928 335,483.5C 348.132,479.35 360.299,473.183 371.5,465C 375.444,462.647 379.444,462.147 383.5,463.5 Z"/></g>
<g><path style="opacity:1" fill="#131514" d="M 243.5,472.5 C 243.344,478.116 242.344,483.449 240.5,488.5C 240.5,486.167 240.5,483.833 240.5,481.5C 241.626,478.535 242.626,475.535 243.5,472.5 Z"/></g>
<g><path style="opacity:1" fill="#101312" d="M 261.5,477.5 C 261.5,485.167 261.5,492.833 261.5,500.5C 261.19,510.978 255.857,515.478 245.5,514C 242.337,512.52 240.504,510.02 240,506.5C 239.181,500.319 239.347,494.319 240.5,488.5C 240.334,494.176 240.501,499.843 241,505.5C 241.471,507.246 242.138,508.913 243,510.5C 250.937,515.377 256.604,513.377 260,504.5C 260.17,495.324 260.67,486.324 261.5,477.5 Z"/></g>
<g><path style="opacity:1" fill="#83cbbf" d="M 240.5,481.5 C 240.5,483.833 240.5,486.167 240.5,488.5C 239.347,494.319 239.181,500.319 240,506.5C 240.504,510.02 242.337,512.52 245.5,514C 255.857,515.478 261.19,510.978 261.5,500.5C 262.319,497.695 262.819,494.695 263,491.5C 264.33,490.418 265.83,489.751 267.5,489.5C 267.666,495.176 267.499,500.843 267,506.5C 263.328,518.09 255.495,522.59 243.5,520C 238.006,517.168 234.839,512.668 234,506.5C 233.085,497.723 233.585,489.057 235.5,480.5C 237.17,480.249 238.67,479.582 240,478.5C 240.483,479.448 240.649,480.448 240.5,481.5 Z"/></g>
<g><path style="opacity:1" fill="#5bd6a6" d="M 457.5,456.5 C 459.007,476.854 458.674,497.187 456.5,517.5C 456.192,522.447 457.025,527.114 459,531.5C 467.362,538.826 474.362,537.493 480,527.5C 482.03,514.771 481.863,502.105 479.5,489.5C 480.425,486.869 482.091,486.202 484.5,487.5C 487.773,501.386 488.273,515.386 486,529.5C 483.117,534.05 479.284,537.55 474.5,540C 463.618,543.6 456.118,540.1 452,529.5C 449.98,520.426 450.313,511.426 453,502.5C 453.785,487.468 453.618,472.468 452.5,457.5C 454.042,456.699 455.708,456.366 457.5,456.5 Z"/></g>
<g><path style="opacity:1" fill="#242927" d="M 476.5,430.5 C 476.261,434.842 475.927,439.176 475.5,443.5C 475.074,459.131 476.408,474.464 479.5,489.5C 481.863,502.105 482.03,514.771 480,527.5C 474.362,537.493 467.362,538.826 459,531.5C 457.025,527.114 456.192,522.447 456.5,517.5C 458.674,497.187 459.007,476.854 457.5,456.5C 457.5,453.833 457.5,451.167 457.5,448.5C 459.23,459.948 460.23,471.615 460.5,483.5C 459.642,497.196 458.809,510.862 458,524.5C 458.937,527.656 460.437,530.489 462.5,533C 469.962,536.025 475.462,533.858 479,526.5C 480.548,517.562 480.881,508.562 480,499.5C 476.145,482.555 473.978,465.388 473.5,448C 473.119,441.8 474.119,435.967 476.5,430.5 Z"/></g>
</svg>
